TITLE ""
FILE "2Q_t_0101-0117.mp3" MP3
  TRACK 01 AUDIO
    TITLE "2Q_t_0101-0117_01"
    INDEX 01 00:00:00
  TRACK 02 AUDIO
    TITLE "2Q_t_0101-0117_02"
    INDEX 01 00:01:37
  TRACK 03 AUDIO
    TITLE "2Q_t_0101-0117_03"
    INDEX 01 00:02:07
  TRACK 04 AUDIO
    TITLE "2Q_t_0101-0117_04"
    INDEX 01 00:03:15
  TRACK 05 AUDIO
    TITLE "2Q_t_0101-0117_05"
    INDEX 01 00:03:63
  TRACK 06 AUDIO
    TITLE "2Q_t_0101-0117_06"
    INDEX 01 00:04:67
  TRACK 07 AUDIO
    TITLE "2Q_t_0101-0117_07"
    INDEX 01 00:05:41
  TRACK 08 AUDIO
    TITLE "2Q_t_0101-0117_08"
    INDEX 01 00:08:37
  TRACK 09 AUDIO
    TITLE "2Q_t_0101-0117_09"
    INDEX 01 00:09:05
  TRACK 10 AUDIO
    TITLE "2Q_t_0101-0117_10"
    INDEX 01 00:10:13
  TRACK 11 AUDIO
    TITLE "2Q_t_0101-0117_11"
    INDEX 01 00:10:64
  TRACK 12 AUDIO
    TITLE "2Q_t_0101-0117_12"
    INDEX 01 00:12:12
  TRACK 13 AUDIO
    TITLE "2Q_t_0101-0117_13"
    INDEX 01 00:12:57
  TRACK 14 AUDIO
    TITLE "2Q_t_0101-0117_14"
    INDEX 01 00:14:03
  TRACK 15 AUDIO
    TITLE "2Q_t_0101-0117_15"
    INDEX 01 00:14:48
  TRACK 16 AUDIO
    TITLE "2Q_t_0101-0117_16"
    INDEX 01 00:18:16
  TRACK 17 AUDIO
    TITLE "2Q_t_0101-0117_17"
    INDEX 01 00:18:61
  TRACK 18 AUDIO
    TITLE "2Q_t_0101-0117_18"
    INDEX 01 00:19:61
  TRACK 19 AUDIO
    TITLE "2Q_t_0101-0117_19"
    INDEX 01 00:20:33
  TRACK 20 AUDIO
    TITLE "2Q_t_0101-0117_20"
    INDEX 01 00:21:59
  TRACK 21 AUDIO
    TITLE "2Q_t_0101-0117_21"
    INDEX 01 00:22:31
  TRACK 22 AUDIO
    TITLE "2Q_t_0101-0117_22"
    INDEX 01 00:23:43
  TRACK 23 AUDIO
    TITLE "2Q_t_0101-0117_23"
    INDEX 01 00:24:11
  TRACK 24 AUDIO
    TITLE "2Q_t_0101-0117_24"
    INDEX 01 00:27:19
  TRACK 25 AUDIO
    TITLE "2Q_t_0101-0117_25"
    INDEX 01 00:27:64
  TRACK 26 AUDIO
    TITLE "2Q_t_0101-0117_26"
    INDEX 01 00:29:02
  TRACK 27 AUDIO
    TITLE "2Q_t_0101-0117_27"
    INDEX 01 00:29:49
  TRACK 28 AUDIO
    TITLE "2Q_t_0101-0117_28"
    INDEX 01 00:33:08
  TRACK 29 AUDIO
    TITLE "2Q_t_0101-0117_29"
    INDEX 01 00:33:53
  TRACK 30 AUDIO
    TITLE "2Q_t_0101-0117_30"
    INDEX 01 00:34:56
  TRACK 31 AUDIO
    TITLE "2Q_t_0101-0117_31"
    INDEX 01 00:35:40
  TRACK 32 AUDIO
    TITLE "2Q_t_0101-0117_32"
    INDEX 01 00:38:17
  TRACK 33 AUDIO
    TITLE "2Q_t_0101-0117_33"
    INDEX 01 00:38:62
  TRACK 34 AUDIO
    TITLE "2Q_t_0101-0117_34"
    INDEX 01 00:40:04
  TRACK 35 AUDIO
    TITLE "2Q_t_0101-0117_35"
    INDEX 01 00:40:53
  TRACK 36 AUDIO
    TITLE "2Q_t_0101-0117_36"
    INDEX 01 00:43:08
  TRACK 37 AUDIO
    TITLE "2Q_t_0101-0117_37"
    INDEX 01 00:43:51
  TRACK 38 AUDIO
    TITLE "2Q_t_0101-0117_38"
    INDEX 01 00:45:01
  TRACK 39 AUDIO
    TITLE "2Q_t_0101-0117_39"
    INDEX 01 00:45:48
  TRACK 40 AUDIO
    TITLE "2Q_t_0101-0117_40"
    INDEX 01 00:48:58
  TRACK 41 AUDIO
    TITLE "2Q_t_0101-0117_41"
    INDEX 01 00:49:26
  TRACK 42 AUDIO
    TITLE "2Q_t_0101-0117_42"
    INDEX 01 00:50:47
  TRACK 43 AUDIO
    TITLE "2Q_t_0101-0117_43"
    INDEX 01 00:51:19
  TRACK 44 AUDIO
    TITLE "2Q_t_0101-0117_44"
    INDEX 01 00:54:18
  TRACK 45 AUDIO
    TITLE "2Q_t_0101-0117_45"
    INDEX 01 00:54:63
  TRACK 46 AUDIO
    TITLE "2Q_t_0101-0117_46"
    INDEX 01 00:55:66
  TRACK 47 AUDIO
    TITLE "2Q_t_0101-0117_47"
    INDEX 01 00:56:42
  TRACK 48 AUDIO
    TITLE "2Q_t_0101-0117_48"
    INDEX 01 00:58:59
  TRACK 49 AUDIO
    TITLE "2Q_t_0101-0117_49"
    INDEX 01 00:59:29
  TRACK 50 AUDIO
    TITLE "2Q_t_0101-0117_50"
    INDEX 01 01:00:30
  TRACK 51 AUDIO
    TITLE "2Q_t_0101-0117_51"
    INDEX 01 01:01:02
  TRACK 52 AUDIO
    TITLE "2Q_t_0101-0117_52"
    INDEX 01 01:03:70
  TRACK 53 AUDIO
    TITLE "2Q_t_0101-0117_53"
    INDEX 01 01:04:40
  TRACK 54 AUDIO
    TITLE "2Q_t_0101-0117_54"
    INDEX 01 01:05:51
  TRACK 55 AUDIO
    TITLE "2Q_t_0101-0117_55"
    INDEX 01 01:06:23
  TRACK 56 AUDIO
    TITLE "2Q_t_0101-0117_56"
    INDEX 01 01:10:52
  TRACK 57 AUDIO
    TITLE "2Q_t_0101-0117_57"
    INDEX 01 01:11:20
  TRACK 58 AUDIO
    TITLE "2Q_t_0101-0117_58"
    INDEX 01 01:12:41
  TRACK 59 AUDIO
    TITLE "2Q_t_0101-0117_59"
    INDEX 01 01:13:15
  TRACK 60 AUDIO
    TITLE "2Q_t_0101-0117_60"
    INDEX 01 01:14:26
  TRACK 61 AUDIO
    TITLE "2Q_t_0101-0117_61"
    INDEX 01 01:14:71
  TRACK 62 AUDIO
    TITLE "2Q_t_0101-0117_62"
    INDEX 01 01:16:12
  TRACK 63 AUDIO
    TITLE "2Q_t_0101-0117_63"
    INDEX 01 01:16:60
  TRACK 64 AUDIO
    TITLE "2Q_t_0101-0117_64"
    INDEX 01 01:20:25
  TRACK 65 AUDIO
    TITLE "2Q_t_0101-0117_65"
    INDEX 01 01:20:68
  TRACK 66 AUDIO
    TITLE "2Q_t_0101-0117_66"
    INDEX 01 01:21:64
  TRACK 67 AUDIO
    TITLE "2Q_t_0101-0117_67"
    INDEX 01 01:22:38
  TRACK 68 AUDIO
    TITLE "2Q_t_0101-0117_68"
    INDEX 01 01:23:49
  TRACK 69 AUDIO
    TITLE "2Q_t_0101-0117_69"
    INDEX 01 01:24:17
  TRACK 70 AUDIO
    TITLE "2Q_t_0101-0117_70"
    INDEX 01 01:25:30
  TRACK 71 AUDIO
    TITLE "2Q_t_0101-0117_71"
    INDEX 01 01:26:04
  TRACK 72 AUDIO
    TITLE "2Q_t_0101-0117_72"
    INDEX 01 01:27:52
